<svg xmlns="http://www.w3.org/2000/svg" width="84" height="104.449" viewBox="0 0 84 104.449">
  <path id="Path_94" data-name="Path 94" d="M957.841,663.2V661.22c0-16.215.056-32.429-.037-48.643a14.139,14.139,0,0,1,4.477-10.907c7.346-7.116,14.527-14.4,21.768-21.624a3,3,0,0,1,3.45-.941c1.458.57,1.861,1.7,1.858,3.172q-.031,23.511,0,47.022a6.477,6.477,0,0,1-2.069,4.846q-14.494,14.4-28.959,28.835c-5.993,5.968-12.041,11.883-17.954,17.929a7.053,7.053,0,0,1-8.154,1.863c-5.98-2.088-12.016-4.015-18.031-6-5.845-1.929-8.8-5.981-8.8-12.11,0-17.541.04-35.082-.031-52.623a13.279,13.279,0,0,1,4.229-10.108c7.315-7.147,14.518-14.41,21.748-21.645,1.083-1.083,2.2-1.807,3.787-1.147,1.609.668,1.817,2.01,1.818,3.518q.011,34.049.045,68.1c0,4.387,1.021,5.9,5.12,7.3,4.879,1.667,9.783,3.261,14.678,4.882C957.058,663.03,957.345,663.077,957.841,663.2Z" transform="translate(-905.361 -578.883)"/>
</svg>
